<svg xmlns="http://www.w3.org/2000/svg" xmlns:xlink="http://www.w3.org/1999/xlink" width="500" zoomAndPan="magnify" viewBox="0 0 375 374.999991" height="500" preserveAspectRatio="xMidYMid meet" version="1.0"><defs><g/></defs><rect x="-37.5" width="450" fill="#ffffff" y="-37.499999" height="449.999989" fill-opacity="1"/><rect x="-37.5" width="450" fill="#ffffff" y="-37.499999" height="449.999989" fill-opacity="1"/><g fill="#ff6542" fill-opacity="1"><g transform="translate(2.749997, 246.542422)"><g><path d="M 50.046875 1.734375 C 40.929688 1.734375 33.101562 -0.203125 26.5625 -4.078125 C 20.019531 -7.960938 15 -13.359375 11.5 -20.265625 C 8 -27.179688 6.25 -35.140625 6.25 -44.140625 C 6.25 -53.253906 8.015625 -61.257812 11.546875 -68.15625 C 15.085938 -75.050781 20.117188 -80.4375 26.640625 -84.3125 C 33.171875 -88.195312 40.9375 -90.140625 49.9375 -90.140625 C 57.695312 -90.140625 64.503906 -88.726562 70.359375 -85.90625 C 76.210938 -83.09375 80.828125 -79.132812 84.203125 -74.03125 C 87.585938 -68.9375 89.453125 -62.953125 89.796875 -56.078125 L 66.5 -56.078125 C 65.84375 -60.515625 64.113281 -64.09375 61.3125 -66.8125 C 58.519531 -69.539062 54.863281 -70.90625 50.34375 -70.90625 C 44.625 -70.90625 40.023438 -68.609375 36.546875 -64.015625 C 33.078125 -59.421875 31.34375 -52.914062 31.34375 -44.5 C 31.34375 -36 33.070312 -29.421875 36.53125 -24.765625 C 39.988281 -20.109375 44.59375 -17.78125 50.34375 -17.78125 C 54.59375 -17.78125 58.164062 -19.0625 61.0625 -21.625 C 63.957031 -24.195312 65.769531 -27.859375 66.5 -32.609375 L 89.796875 -32.609375 C 89.410156 -25.816406 87.566406 -19.832031 84.265625 -14.65625 C 80.960938 -9.476562 76.414062 -5.453125 70.625 -2.578125 C 64.832031 0.296875 57.972656 1.734375 50.046875 1.734375 Z M 50.046875 1.734375 "/></g></g></g><g fill="#ff6542" fill-opacity="1"><g transform="translate(98.569746, 246.542422)"><g><path d="M 50.046875 1.734375 C 41.054688 1.734375 33.285156 -0.1875 26.734375 -4.03125 C 20.191406 -7.875 15.140625 -13.238281 11.578125 -20.125 C 8.023438 -27.019531 6.25 -35.023438 6.25 -44.140625 C 6.25 -53.335938 8.023438 -61.378906 11.578125 -68.265625 C 15.140625 -75.160156 20.191406 -80.53125 26.734375 -84.375 C 33.285156 -88.21875 41.054688 -90.140625 50.046875 -90.140625 C 59.046875 -90.140625 66.816406 -88.21875 73.359375 -84.375 C 79.910156 -80.53125 84.960938 -75.160156 88.515625 -68.265625 C 92.078125 -61.378906 93.859375 -53.335938 93.859375 -44.140625 C 93.859375 -35.023438 92.078125 -27.019531 88.515625 -20.125 C 84.960938 -13.238281 79.910156 -7.875 73.359375 -4.03125 C 66.816406 -0.1875 59.046875 1.734375 50.046875 1.734375 Z M 50.171875 -17.375 C 56.273438 -17.375 60.898438 -19.921875 64.046875 -25.015625 C 67.191406 -30.117188 68.765625 -36.550781 68.765625 -44.3125 C 68.765625 -52.082031 67.191406 -58.523438 64.046875 -63.640625 C 60.898438 -68.753906 56.273438 -71.3125 50.171875 -71.3125 C 43.953125 -71.3125 39.257812 -68.753906 36.09375 -63.640625 C 32.925781 -58.523438 31.34375 -52.082031 31.34375 -44.3125 C 31.34375 -36.550781 32.925781 -30.117188 36.09375 -25.015625 C 39.257812 -19.921875 43.953125 -17.375 50.171875 -17.375 Z M 50.171875 -17.375 "/></g></g></g><g fill="#ff6542" fill-opacity="1"><g transform="translate(198.676475, 246.542422)"><g><path d="M 42.640625 1.453125 C 35.878906 1.453125 29.773438 -0.289062 24.328125 -3.78125 C 18.878906 -7.28125 14.550781 -12.4375 11.34375 -19.25 C 8.144531 -26.070312 6.546875 -34.445312 6.546875 -44.375 C 6.546875 -54.570312 8.195312 -63.054688 11.5 -69.828125 C 14.800781 -76.609375 19.179688 -81.6875 24.640625 -85.0625 C 30.109375 -88.445312 36.085938 -90.140625 42.578125 -90.140625 C 47.554688 -90.140625 51.71875 -89.300781 55.0625 -87.625 C 58.40625 -85.945312 61.109375 -83.867188 63.171875 -81.390625 C 65.242188 -78.921875 66.816406 -76.472656 67.890625 -74.046875 L 68.65625 -74.046875 L 68.65625 -118.640625 L 93.265625 -118.640625 L 93.265625 0 L 68.9375 0 L 68.9375 -14.25 L 67.890625 -14.25 C 66.773438 -11.78125 65.15625 -9.335938 63.03125 -6.921875 C 60.90625 -4.503906 58.171875 -2.503906 54.828125 -0.921875 C 51.492188 0.660156 47.429688 1.453125 42.640625 1.453125 Z M 50.453125 -18.1875 C 56.398438 -18.1875 61.003906 -20.585938 64.265625 -25.390625 C 67.535156 -30.203125 69.171875 -36.570312 69.171875 -44.5 C 69.171875 -52.445312 67.546875 -58.765625 64.296875 -63.453125 C 61.054688 -68.148438 56.441406 -70.5 50.453125 -70.5 C 44.359375 -70.5 39.71875 -68.09375 36.53125 -63.28125 C 33.34375 -58.476562 31.75 -52.21875 31.75 -44.5 C 31.75 -36.726562 33.347656 -30.398438 36.546875 -25.515625 C 39.753906 -20.628906 44.390625 -18.1875 50.453125 -18.1875 Z M 50.453125 -18.1875 "/></g></g></g><g fill="#ff6542" fill-opacity="1"><g transform="translate(302.31707, 246.542422)"><g><path d="M 9.84375 0 L 9.84375 -88.984375 L 33.78125 -88.984375 L 33.78125 -73.453125 L 34.703125 -73.453125 C 36.328125 -78.984375 39.039062 -83.164062 42.84375 -86 C 46.644531 -88.84375 51.054688 -90.265625 56.078125 -90.265625 C 58.472656 -90.265625 60.691406 -89.972656 62.734375 -89.390625 C 64.785156 -88.804688 66.625 -88.015625 68.25 -87.015625 L 60.828125 -66.625 C 59.671875 -67.207031 58.40625 -67.695312 57.03125 -68.09375 C 55.664062 -68.5 54.132812 -68.703125 52.4375 -68.703125 C 47.445312 -68.703125 43.222656 -67.003906 39.765625 -63.609375 C 36.316406 -60.210938 34.570312 -55.789062 34.53125 -50.34375 L 34.53125 0 Z M 9.84375 0 "/></g></g></g></svg>